<?xml version="1.0" encoding="UTF-8"?>
<svg
  xmlns="http://www.w3.org/2000/svg"
  width="64"
  height="64"
  viewBox="0 0 224.726 224.726"
  aria-hidden="true"
>
  <style>
    :root {
      color-scheme: light dark;
    }

    .icon {
      fill: #000;
    }

    @media (prefers-color-scheme: dark) {
      .icon {
        fill: #fff;
      }
    }
  </style>
  <g transform="translate(112.363 112.363) scale(1.06) translate(-112.363 -112.363)">
    <path
      class="icon"
      d="M223.612 109.586 190.5 35.752l-.003-.006-.043-.096a5.125 5.125 0 0 0-.389-.7c-.039-.06-.086-.114-.127-.171a5.357 5.357 0 0 0-.424-.514 5.255 5.255 0 0 0-.184-.185 5.43 5.43 0 0 0-.533-.44 4.657 4.657 0 0 0-.145-.11 5.149 5.149 0 0 0-.746-.405 4.37 4.37 0 0 0-.227-.086 5.017 5.017 0 0 0-.625-.194 4.747 4.747 0 0 0-.264-.058 5.12 5.12 0 0 0-.896-.09h-58.428c-1-3.111-2.943-5.794-5.485-7.737v-7.262c0-2.761-2.239-5-5-5h-9.334c-2.761 0-5 2.239-5 5v7.381c-2.465 1.933-4.347 4.572-5.326 7.619H38.734c-.305 0-.602.037-.896.09-.09.016-.176.037-.264.058-.214.051-.422.116-.625.194-.076.029-.153.053-.227.086-.26.115-.51.248-.746.405-.051.034-.096.074-.145.11-.188.134-.365.28-.533.44-.064.06-.124.122-.185.185-.153.161-.293.333-.424.514-.042.058-.088.112-.127.171-.146.221-.278.453-.389.7l-.043.096-.003.006L.897 109.848A4.964 4.964 0 0 0 0 112.696c0 21.358 17.376 38.734 38.734 38.734s38.734-17.376 38.734-38.734c0-1.06-.334-2.038-.897-2.847L46.456 42.696h50.986c1.007 2.905 2.831 5.424 5.204 7.286v125.381H58.308c-1.871 0-3.586 1.045-4.444 2.708L40.11 204.738c-.799 1.55-.733 3.405.174 4.894.908 1.489 2.525 2.398 4.27 2.398h135.519c.006-.001.012 0 .02 0 2.761 0 5-2.239 5-5 0-.98-.282-1.894-.769-2.665l-13.563-26.294c-.858-1.663-2.573-2.708-4.444-2.708H121.98V50.101c2.449-1.873 4.334-4.436 5.363-7.405h50.828l-30.475 67.954a1.26 1.26 0 0 0-.02.054 4.39 4.39 0 0 0-.062.165 5.067 5.067 0 0 0-.217.699c-.014.062-.032.122-.044.184-.055.287-.083.576-.087.866 0 .027-.008.051-.008.078 0 21.358 17.376 38.734 38.734 38.734s38.734-17.376 38.734-38.734c0-1.182-.428-2.254-1.114-3.11ZM64.646 107.696H12.822l25.912-57.781 25.912 57.781Zm53.58-70.166c0 3.217-2.617 5.833-5.833 5.833-3.217 0-5.834-2.617-5.834-5.833 0-3.217 2.617-5.833 5.834-5.833 3.216 0 5.833 2.617 5.833 5.833Zm41.754 70.166 25.913-57.781 25.912 57.781H159.98Z"
    />
  </g>
</svg>
