<?xml version="1.0" encoding="UTF-8" standalone="no"?>
<!-- Created with Inkscape (http://www.inkscape.org/) -->

<svg
   version="1.1"
   id="svg1"
   width="122.91559"
   height="72.053429"
   viewBox="0 0 122.91559 72.053427"
   xmlns="http://www.w3.org/2000/svg"
   xmlns:svg="http://www.w3.org/2000/svg">
  <defs
     id="defs1" />
  <g
     id="g1"
     transform="translate(-16.958463,-42.286775)">
    <g
       id="g2">
      <path
         style="display:inline;fill:#8b1e2d;fill-opacity:1"
         d="m 80.375495,113.3837 c -1.2518,-1.85309 -2.288069,-3.75043 -2.996635,-5.48664 -1.651684,-4.04712 -2.129307,-6.40582 -3.219071,-15.897058 C 73.369288,85.115178 72.526125,81.022828 70.929178,76.320001 66.82081,64.221332 59.78564,54.707369 51.132728,49.54841 c -2.317909,-1.381962 -5.171477,-2.706883 -7.292727,-3.386038 -2.617113,-0.837913 -2.666247,-0.85575 -2.395803,-0.86974 0.507118,-0.02623 3.01479,0.329683 4.5163,0.640999 3.224572,0.668568 5.467942,1.461592 8.839503,3.124735 8.142758,4.016706 14.934273,11.593264 19.035974,21.236374 3.633184,8.541628 5.19632,16.793686 5.202571,27.465262 0.0037,6.381178 0.49481,11.112198 1.524179,14.684058 0.296112,1.02749 0.524636,1.88058 0.507831,1.89575 -0.0168,0.0152 -0.329583,-0.41507 -0.695061,-0.95611 z m -6.949312,-3.96766 C 71.214252,106.94815 69.873488,105.02543 68.589501,102.48 67.093264,99.5138 66.167579,96.794373 64.477503,90.400002 62.572753,83.193414 61.083416,79.095224 58.633814,74.320001 55.701924,68.604612 52.494247,64.152043 48.251326,59.908092 45.136913,56.792924 43.64606,55.584213 40.439367,53.574536 39.247869,52.827807 36.169549,51.200001 35.94892,51.200001 c -0.05092,0 0.01081,0.247479 0.137194,0.549952 0.332005,0.794601 0.463526,2.608974 0.25844,3.565259 l -0.175523,0.818435 1.937945,3.893177 c 2.261316,4.542804 10.465987,21.14722 12.260034,24.811564 0.779654,1.592446 1.342859,2.554554 1.531811,2.616755 0.434271,0.142958 0.26344,1.115012 -0.44945,2.557448 -1.480352,2.995288 -6.141325,5.609282 -11.52937,6.465967 -0.528,0.08395 -1.248,0.200269 -1.6,0.258485 -0.894517,0.147942 -6.167538,0.149973 -7.52,0.0029 -0.616,-0.06699 -1.948,-0.305515 -2.96,-0.530059 -5.417408,-1.202025 -9.447723,-3.772364 -10.561927,-6.735882 -0.33807,-0.899188 -0.437333,-2.20659 -0.154248,-2.031634 0.138475,0.08558 8.357213,-16.270335 14.174212,-28.207767 1.500291,-3.078843 1.503254,-3.087348 1.393342,-4 -0.237859,-1.975065 0.01066,-3.404099 0.792185,-4.555258 0.232581,-0.342584 0.252123,-0.457799 0.0878,-0.517663 C 32.282691,49.692204 29.745702,49.025822 28,48.69827 c -1.188,-0.222909 -2.376001,-0.468592 -2.640001,-0.545963 -0.532723,-0.156125 5.859326,-0.08331 6.800001,0.07747 0.308,0.05264 1.028,0.17492 1.6,0.271732 2.696828,0.45644 6.300377,1.626491 9.111678,2.958507 9.211778,4.36461 16.612624,12.558618 21.819672,24.158122 2.351165,5.237587 3.752749,10.270967 5.140848,18.461871 1.038363,6.127181 1.707188,9.193751 2.495089,11.440001 0.503091,1.43428 1.604857,3.93855 1.957456,4.44921 0.596596,0.86405 0.158923,0.58206 -0.858561,-0.55317 z M 49.492615,87.398335 c 0.06475,-0.110347 -1.539038,-3.377598 -10.868978,-22.142334 -3.625106,-7.290954 -3.632479,-7.303993 -4.127615,-7.300031 -0.48689,0.0039 -0.5306,0.07356 -2.37432,3.784 C 26.101562,73.855357 19.52,87.240405 19.52,87.368293 c 0,0.177439 29.868553,0.207377 29.972615,0.03004 z M 82.928749,109.2 C 84.74904,105.51896 85.550442,102.5133 87.0242,93.840002 88.570004,84.742705 89.969513,80.019463 92.950251,73.840001 98.016635,63.336723 104.96122,55.852908 113.52,51.673052 c 5.46966,-2.671218 10.6798,-3.784377 17.26667,-3.689065 0.60867,0.0088 1.06978,0.0529 1.02469,0.09799 -0.0451,0.04509 -1.08309,0.257885 -2.30667,0.472884 -2.14828,0.377482 -4.37449,0.944361 -5.78108,1.472091 l -0.6764,0.253771 0.30113,0.422897 c 0.63456,0.891157 0.85825,1.995265 0.7746,3.823261 l -0.0784,1.71312 1.63935,3.36 c 2.15041,4.407446 11.13254,22.551199 12.63377,25.520001 0.64524,1.276 1.26947,2.32 1.38718,2.32 0.29205,0 0.19331,1.033776 -0.19818,2.074769 -1.0637,2.828496 -4.9333,5.354092 -10.14667,6.622485 -0.704,0.17128 -1.64,0.359652 -2.08,0.418603 -0.44,0.05895 -1.052,0.149037 -1.36,0.20019 -1.04235,0.173115 -6.47088,0.105211 -7.92,-0.09907 -5.60308,-0.789858 -10.05717,-2.912348 -12.17984,-5.804013 -0.89677,-1.221636 -1.50929,-3.332965 -0.96694,-3.332965 0.2252,0 0.56721,-0.670062 7.5134,-14.720001 2.41461,-4.884 5.26257,-10.628736 6.3288,-12.766079 l 1.9386,-3.88608 -0.17705,-0.825533 c -0.19125,-0.891787 -0.091,-2.627518 0.20003,-3.46229 0.099,-0.283994 0.15368,-0.542671 0.1215,-0.574837 -0.0322,-0.03217 -0.76162,0.295433 -1.62098,0.727999 -7.32418,3.686651 -13.86621,10.140518 -19.04346,18.78682 -3.138725,5.241862 -5.329202,10.535184 -7.150789,17.280001 -1.284118,4.754722 -1.481515,5.46842 -2.035654,7.36 -1.36978,4.675809 -3.165499,8.451779 -5.467,11.495799 -0.57913,0.76597 -1.446357,1.75871 -3.096118,3.5442 -0.08131,0.088 0.172603,-0.488 0.56425,-1.28 z M 137.28,87.368942 c 0,-0.128137 -4.28146,-8.834826 -12.60438,-25.631987 -1.86157,-3.75697 -1.87795,-3.782947 -2.37674,-3.768809 -0.4998,0.01417 -0.51959,0.04907 -4.04978,7.143046 -8.87769,17.839863 -11.00658,22.176891 -10.94077,22.28881 0.10637,0.180899 29.97167,0.149949 29.97167,-0.03106 z M 80.292153,104.22667 c -0.01532,-0.60867 -0.03955,-1.32267 -0.05385,-1.58667 -0.0143,-0.264 -0.0742,-2.532 -0.133109,-5.039998 -0.05891,-2.508 -0.141405,-4.992 -0.183321,-5.52 -0.04192,-0.528 -0.116076,-1.657088 -0.1648,-2.509085 -0.04873,-0.851996 -0.229667,-2.507996 -0.402095,-3.68 -0.172428,-1.172003 -0.313836,-2.386168 -0.314242,-2.698143 -9.2e-4,-0.708372 1.05078,-4.906143 1.842147,-7.352773 5.000035,-15.458351 14.542562,-25.582083 27.671807,-29.357208 1.56396,-0.449692 4.3617,-0.969468 6.00531,-1.115689 1.01771,-0.09054 0.99027,-0.07594 -1.28,0.680715 C 102.8595,49.520888 94.781769,57.046521 89.022041,68.647804 88.547918,69.602786 88.16,70.418681 88.16,70.460905 c 0,0.04222 -0.20873,0.531793 -0.463845,1.087933 -0.255115,0.55614 -0.827562,1.992357 -1.272105,3.191593 -2.041733,5.507956 -2.936194,9.776804 -4.018736,19.179571 -0.268483,2.332 -0.633535,5.104 -0.811226,6.159998 -0.310031,1.84249 -1.048476,5.02772 -1.200941,5.18019 -0.04023,0.0402 -0.08568,-0.42485 -0.100996,-1.03352 z M 76.320001,63.699867 c -1.125765,-0.361941 -1.491182,-0.556248 -2.522533,-1.341335 -1.600227,-1.218128 -3.018447,-3.531827 -3.65238,-5.958531 -0.446331,-1.708562 -0.412897,-5.030527 0.06754,-6.710946 1.130461,-3.953974 3.805659,-6.717248 7.067483,-7.300168 3.981823,-0.711592 7.893949,2.356894 9.307256,7.300168 0.481276,1.683341 0.514036,5.004469 0.0662,6.710946 -0.981103,3.738472 -3.329865,6.467055 -6.322607,7.345047 -1.129143,0.331261 -2.902213,0.311288 -4.01096,-0.04518 z"
         id="path1" />
    </g>
  </g>
</svg>
